<svg xmlns="http://www.w3.org/2000/svg" viewBox="-75.3 -4 504.12 108" role="img" aria-label="dmt: Dispersion Measure Transform"><title>dmt: Dispersion Measure Transform</title><g transform="translate(-5.38 0)"><path d="M150.73 66.31H150.09Q147.67 71.27 143.66 74.06Q139.66 76.86 133.65 76.86Q124.06 76.86 118.37 69.69Q112.68 62.52 112.68 48.4Q112.68 34.27 118.37 27.1Q124.06 19.94 133.65 19.94Q139.66 19.94 143.66 22.73Q147.67 25.52 150.09 30.48H150.73V-2.41H162.22V75.59H150.73ZM138.39 67.47Q140.92 67.47 143.14 66.84Q145.35 66.21 147.04 64.94Q148.72 63.68 149.73 61.84Q150.73 59.99 150.73 57.46V39.33Q150.73 36.8 149.73 34.96Q148.72 33.11 147.04 31.85Q145.35 30.58 143.14 29.95Q140.92 29.32 138.39 29.32Q131.86 29.32 128.33 33.32Q124.8 37.33 124.8 43.97V52.82Q124.8 59.46 128.33 63.47Q131.86 67.47 138.39 67.47ZM175.18 75.59V21.2H184.98V28.26H185.51Q186.78 24.79 189.15 22.36Q191.52 19.94 195.95 19.94Q200.27 19.94 202.64 22.31Q205.01 24.68 205.64 28.79H206.06Q207.54 25.1 210.18 22.52Q212.81 19.94 217.76 19.94Q224.09 19.94 226.57 24.36Q229.04 28.79 229.04 37.33V75.59H219.24V38.8Q219.24 33.11 217.87 30.95Q216.5 28.79 213.44 28.79Q210.7 28.79 208.86 30.64Q207.01 32.48 207.01 36.17V75.59H197.21V38.8Q197.21 33.11 195.89 30.95Q194.58 28.79 191.52 28.79Q188.67 28.79 186.83 30.64Q184.98 32.48 184.98 36.17V75.59ZM268.68 75.59Q261.51 75.59 258.14 71.74Q254.76 67.9 254.76 61.78V30.48H238V21.2H249.91Q252.97 21.2 254.24 19.99Q255.5 18.78 255.5 15.61V2.02H266.25V21.2H289.44V30.48H266.25V66.31H289.44V75.59Z" fill="#EDF0F4"/><path d="M108.77 91.59H111.8Q113.78 91.59 114.76 92.95Q115.73 94.32 115.73 97Q115.73 99.68 114.76 101.05Q113.78 102.41 111.8 102.41H108.77ZM111.73 101.28Q113.03 101.28 113.69 100.38Q114.35 99.48 114.35 97.84V96.16Q114.35 94.52 113.69 93.62Q113.03 92.72 111.73 92.72H110.07V101.28ZM120.07 102.41V101.37H122.77V92.63H120.07V91.59H126.77V92.63H124.07V101.37H126.77V102.41ZM134.86 102.6Q133.4 102.6 132.47 102.06Q131.54 101.53 130.94 100.69L131.88 99.91Q132.52 100.7 133.22 101.09Q133.93 101.48 134.91 101.48Q136.08 101.48 136.7 100.94Q137.32 100.39 137.32 99.42Q137.32 98.63 136.87 98.19Q136.42 97.74 135.31 97.56L134.1 97.36Q133.31 97.22 132.77 96.94Q132.24 96.66 131.91 96.26Q131.59 95.87 131.45 95.4Q131.31 94.92 131.31 94.41Q131.31 92.92 132.29 92.16Q133.26 91.4 134.92 91.4Q136.22 91.4 137.11 91.84Q138.01 92.27 138.55 93.06L137.63 93.85Q137.18 93.26 136.55 92.89Q135.91 92.52 134.91 92.52Q133.8 92.52 133.22 92.99Q132.63 93.45 132.63 94.38Q132.63 95.11 133.07 95.57Q133.51 96.02 134.66 96.22L135.82 96.43Q136.61 96.57 137.15 96.84Q137.7 97.12 138.03 97.51Q138.36 97.9 138.5 98.38Q138.64 98.86 138.64 99.39Q138.64 100.89 137.66 101.74Q136.67 102.6 134.86 102.6ZM143.1 102.41V91.59H147.04Q148.55 91.59 149.34 92.41Q150.13 93.23 150.13 94.71Q150.13 96.18 149.34 97Q148.55 97.82 147.04 97.82H144.41V102.41ZM144.41 96.69H147.01Q147.83 96.69 148.29 96.28Q148.75 95.87 148.75 95.11V94.3Q148.75 93.54 148.29 93.13Q147.83 92.72 147.01 92.72H144.41ZM154.57 102.41V91.59H161.24V92.72H155.88V96.36H161.05V97.5H155.88V101.28H161.24V102.41ZM167.35 102.41H166.04V91.59H169.98Q171.49 91.59 172.28 92.41Q173.07 93.23 173.07 94.71Q173.07 96.02 172.38 96.81Q171.7 97.6 170.4 97.73L173.16 102.41H171.7L169.07 97.79H167.35ZM169.95 96.69Q170.77 96.69 171.23 96.28Q171.69 95.87 171.69 95.11V94.3Q171.69 93.54 171.23 93.13Q170.77 92.72 169.95 92.72H167.35V96.69ZM180.74 102.6Q179.28 102.6 178.35 102.06Q177.42 101.53 176.82 100.69L177.76 99.91Q178.4 100.7 179.1 101.09Q179.81 101.48 180.79 101.48Q181.96 101.48 182.58 100.94Q183.2 100.39 183.2 99.42Q183.2 98.63 182.75 98.19Q182.3 97.74 181.19 97.56L179.98 97.36Q179.19 97.22 178.65 96.94Q178.12 96.66 177.79 96.26Q177.47 95.87 177.33 95.4Q177.19 94.92 177.19 94.41Q177.19 92.92 178.17 92.16Q179.14 91.4 180.8 91.4Q182.1 91.4 182.99 91.84Q183.89 92.27 184.43 93.06L183.51 93.85Q183.06 93.26 182.43 92.89Q181.79 92.52 180.79 92.52Q179.68 92.52 179.1 92.99Q178.51 93.45 178.51 94.38Q178.51 95.11 178.95 95.57Q179.39 96.02 180.54 96.22L181.7 96.43Q182.49 96.57 183.03 96.84Q183.58 97.12 183.91 97.51Q184.24 97.9 184.38 98.38Q184.52 98.86 184.52 99.39Q184.52 100.89 183.54 101.74Q182.55 102.6 180.74 102.6ZM188.89 102.41V101.37H191.59V92.63H188.89V91.59H195.59V92.63H192.89V101.37H195.59V102.41ZM203.71 102.6Q202.72 102.6 202 102.22Q201.29 101.84 200.83 101.12Q200.36 100.41 200.14 99.37Q199.93 98.33 199.93 97Q199.93 95.68 200.14 94.64Q200.36 93.59 200.83 92.88Q201.29 92.16 202 91.78Q202.72 91.4 203.71 91.4Q204.7 91.4 205.41 91.78Q206.13 92.16 206.59 92.88Q207.06 93.59 207.27 94.64Q207.49 95.68 207.49 97Q207.49 98.33 207.27 99.37Q207.06 100.41 206.59 101.12Q206.13 101.84 205.41 102.22Q204.7 102.6 203.71 102.6ZM203.71 101.46Q204.36 101.46 204.81 101.21Q205.26 100.95 205.55 100.49Q205.85 100.02 205.98 99.36Q206.11 98.7 206.11 97.88V96.12Q206.11 95.31 205.98 94.64Q205.85 93.98 205.55 93.51Q205.26 93.05 204.81 92.79Q204.36 92.54 203.71 92.54Q203.06 92.54 202.61 92.79Q202.16 93.05 201.87 93.51Q201.57 93.98 201.44 94.64Q201.31 95.31 201.31 96.12V97.88Q201.31 98.7 201.44 99.36Q201.57 100.02 201.87 100.49Q202.16 100.95 202.61 101.21Q203.06 101.46 203.71 101.46ZM213.06 93.3H212.95V102.41H211.77V91.59H213.61L217.3 100.7H217.41V91.59H218.59V102.41H216.75ZM240.52 96.98V93.56H240.4L238.12 99.12L235.84 93.56H235.72V96.98V102.41H234.52V91.59H236.2L238.1 96.36H238.2L240.1 91.59H241.72V102.41H240.52ZM246.33 102.41V91.59H253V92.72H247.64V96.36H252.81V97.5H247.64V101.28H253V102.41ZM263.87 102.41 262.95 99.32H259.15L258.24 102.41H256.89L260.21 91.59H261.93L265.24 102.41ZM261.12 92.97H260.98L259.46 98.19H262.64ZM272.5 102.6Q271.04 102.6 270.11 102.06Q269.18 101.53 268.58 100.69L269.52 99.91Q270.16 100.7 270.86 101.09Q271.57 101.48 272.55 101.48Q273.72 101.48 274.34 100.94Q274.96 100.39 274.96 99.42Q274.96 98.63 274.51 98.19Q274.06 97.74 272.95 97.56L271.74 97.36Q270.95 97.22 270.41 96.94Q269.88 96.66 269.55 96.26Q269.23 95.87 269.09 95.4Q268.95 94.92 268.95 94.41Q268.95 92.92 269.93 92.16Q270.9 91.4 272.56 91.4Q273.86 91.4 274.75 91.84Q275.65 92.27 276.19 93.06L275.27 93.85Q274.82 93.26 274.19 92.89Q273.55 92.52 272.55 92.52Q271.44 92.52 270.86 92.99Q270.27 93.45 270.27 94.38Q270.27 95.11 270.71 95.57Q271.15 96.02 272.3 96.22L273.46 96.43Q274.25 96.57 274.79 96.84Q275.34 97.12 275.67 97.51Q276 97.9 276.14 98.38Q276.28 98.86 276.28 99.39Q276.28 100.89 275.3 101.74Q274.31 102.6 272.5 102.6ZM281.89 91.59V98.08Q281.89 98.88 281.94 99.5Q281.99 100.12 282.19 100.56Q282.39 101 282.81 101.23Q283.24 101.46 284 101.46Q284.76 101.46 285.19 101.23Q285.61 101 285.81 100.56Q286.02 100.12 286.06 99.5Q286.11 98.88 286.11 98.08V91.59H287.41V97.77Q287.41 98.98 287.29 99.88Q287.18 100.78 286.81 101.39Q286.45 101.99 285.77 102.29Q285.1 102.6 284 102.6Q282.9 102.6 282.23 102.29Q281.55 101.99 281.19 101.39Q280.82 100.78 280.71 99.88Q280.59 98.98 280.59 97.77V91.59ZM293.52 102.41H292.22V91.59H296.15Q297.66 91.59 298.45 92.41Q299.24 93.23 299.24 94.71Q299.24 96.02 298.55 96.81Q297.87 97.6 296.57 97.73L299.33 102.41H297.87L295.24 97.79H293.52ZM296.12 96.69Q296.94 96.69 297.4 96.28Q297.86 95.87 297.86 95.11V94.3Q297.86 93.54 297.4 93.13Q296.94 92.72 296.12 92.72H293.52V96.69ZM303.69 102.41V91.59H310.35V92.72H304.99V96.36H310.16V97.5H304.99V101.28H310.35V102.41ZM330.53 92.72V102.41H329.23V92.72H325.62V91.59H334.14V92.72ZM339.4 102.41H338.1V91.59H342.03Q343.54 91.59 344.33 92.41Q345.12 93.23 345.12 94.71Q345.12 96.02 344.43 96.81Q343.75 97.6 342.45 97.73L345.21 102.41H343.75L341.12 97.79H339.4ZM342 96.69Q342.82 96.69 343.28 96.28Q343.74 95.87 343.74 95.11V94.3Q343.74 93.54 343.28 93.13Q342.82 92.72 342 92.72H339.4V96.69ZM355.63 102.41 354.71 99.32H350.91L350 102.41H348.65L351.97 91.59H353.69L357.01 102.41ZM352.88 92.97H352.74L351.22 98.19H354.4ZM362.17 93.3H362.06V102.41H360.88V91.59H362.72L366.41 100.7H366.52V91.59H367.7V102.41H365.86ZM375.73 102.6Q374.27 102.6 373.34 102.06Q372.41 101.53 371.81 100.69L372.75 99.91Q373.39 100.7 374.09 101.09Q374.8 101.48 375.78 101.48Q376.95 101.48 377.57 100.94Q378.19 100.39 378.19 99.42Q378.19 98.63 377.74 98.19Q377.29 97.74 376.18 97.56L374.97 97.36Q374.18 97.22 373.64 96.94Q373.11 96.66 372.78 96.26Q372.46 95.87 372.32 95.4Q372.18 94.92 372.18 94.41Q372.18 92.92 373.16 92.16Q374.13 91.4 375.79 91.4Q377.09 91.4 377.98 91.84Q378.88 92.27 379.42 93.06L378.5 93.85Q378.05 93.26 377.42 92.89Q376.78 92.52 375.78 92.52Q374.68 92.52 374.09 92.99Q373.5 93.45 373.5 94.38Q373.5 95.11 373.94 95.57Q374.38 96.02 375.53 96.22L376.69 96.43Q377.48 96.57 378.02 96.84Q378.57 97.12 378.9 97.51Q379.23 97.9 379.37 98.38Q379.51 98.86 379.51 99.39Q379.51 100.89 378.53 101.74Q377.54 102.6 375.73 102.6ZM383.98 102.41V91.59H390.8V92.72H385.28V96.36H390.33V97.5H385.28V102.41ZM398.7 102.6Q397.71 102.6 397 102.22Q396.28 101.84 395.82 101.12Q395.35 100.41 395.14 99.37Q394.92 98.33 394.92 97Q394.92 95.68 395.14 94.64Q395.35 93.59 395.82 92.88Q396.28 92.16 397 91.78Q397.71 91.4 398.7 91.4Q399.69 91.4 400.41 91.78Q401.12 92.16 401.58 92.88Q402.05 93.59 402.27 94.64Q402.48 95.68 402.48 97Q402.48 98.33 402.27 99.37Q402.05 100.41 401.58 101.12Q401.12 101.84 400.41 102.22Q399.69 102.6 398.7 102.6ZM398.7 101.46Q399.35 101.46 399.8 101.21Q400.25 100.95 400.54 100.49Q400.84 100.02 400.97 99.36Q401.1 98.7 401.1 97.88V96.12Q401.1 95.31 400.97 94.64Q400.84 93.98 400.54 93.51Q400.25 93.05 399.8 92.79Q399.35 92.54 398.7 92.54Q398.05 92.54 397.6 92.79Q397.15 93.05 396.86 93.51Q396.56 93.98 396.43 94.64Q396.3 95.31 396.3 96.12V97.88Q396.3 98.7 396.43 99.36Q396.56 100.02 396.86 100.49Q397.15 100.95 397.6 101.21Q398.05 101.46 398.7 101.46ZM408.22 102.41H406.92V91.59H410.85Q412.36 91.59 413.15 92.41Q413.94 93.23 413.94 94.71Q413.94 96.02 413.25 96.81Q412.57 97.6 411.27 97.73L414.03 102.41H412.57L409.94 97.79H408.22ZM410.82 96.69Q411.64 96.69 412.1 96.28Q412.56 95.87 412.56 95.11V94.3Q412.56 93.54 412.1 93.13Q411.64 92.72 410.82 92.72H408.22V96.69ZM424.04 96.98V93.56H423.92L421.64 99.12L419.36 93.56H419.24V96.98V102.41H418.04V91.59H419.72L421.62 96.36H421.72L423.62 91.59H425.24V102.41H424.04Z" transform="translate(3.9 0)" fill="#8A94A3"/></g><path d="M0,0V100" stroke="#EDF0F4" fill="none" stroke-width="13.5" stroke-linecap="butt" stroke-linejoin="miter"/><path d="M-64.55,0L-64.52,0.98L-64.48,1.96L-64.45,2.93L-64.41,3.91L-64.37,4.89L-64.34,5.87L-64.3,6.85L-64.26,7.83L-64.22,8.8L-64.17,9.78L-64.13,10.76L-64.09,11.74L-64.04,12.72L-63.99,13.7L-63.95,14.67L-63.9,15.65L-63.85,16.63L-63.79,17.61L-63.74,18.59L-63.69,19.57L-63.63,20.54L-63.57,21.52L-63.51,22.5L-63.45,23.48L-63.39,24.46L-63.32,25.44L-63.26,26.41L-63.19,27.39L-63.12,28.37L-63.04,29.35L-62.97,30.33L-62.89,31.31L-62.81,32.28L-62.73,33.26L-62.64,34.24L-62.55,35.22L-62.46,36.2L-62.37,37.17L-62.27,38.15L-62.17,39.13L-62.07,40.11L-61.96,41.09L-61.85,42.07L-61.73,43.04L-61.61,44.02L-61.49,45L-61.36,45.98L-61.22,46.96L-61.08,47.94L-60.94,48.91L-60.79,49.89L-60.63,50.87L-60.47,51.85L-60.3,52.83L-60.12,53.81L-59.94,54.78L-59.75,55.76L-59.55,56.74L-59.34,57.72L-59.12,58.7L-58.9,59.68L-58.66,60.65L-58.41,61.63L-58.15,62.61L-57.88,63.59L-57.59,64.57L-57.29,65.54L-56.97,66.52L-56.64,67.5L-56.29,68.48L-55.93,69.46L-55.54,70.44L-55.13,71.41L-54.7,72.39L-54.24,73.37L-53.76,74.35L-53.25,75.33L-52.7,76.31L-52.13,77.28L-51.51,78.26L-50.86,79.24L-50.17,80.22L-49.42,81.2L-48.63,82.18L-47.78,83.15L-46.87,84.13L-45.89,85.11L-44.84,86.09L-43.7,87.07L-42.48,88.05L-41.15,89.02L-39.71,90L-38.15,90.98L-36.45,91.96L-34.59,92.94L-32.55,93.92" stroke="#7196FF" fill="none" stroke-width="13.5" stroke-linecap="butt" stroke-linejoin="miter"/><path d="M64.55,0L64.52,0.98L64.48,1.96L64.45,2.93L64.41,3.91L64.37,4.89L64.34,5.87L64.3,6.85L64.26,7.83L64.22,8.8L64.17,9.78L64.13,10.76L64.09,11.74L64.04,12.72L63.99,13.7L63.95,14.67L63.9,15.65L63.85,16.63L63.79,17.61L63.74,18.59L63.69,19.57L63.63,20.54L63.57,21.52L63.51,22.5L63.45,23.48L63.39,24.46L63.32,25.44L63.26,26.41L63.19,27.39L63.12,28.37L63.04,29.35L62.97,30.33L62.89,31.31L62.81,32.28L62.73,33.26L62.64,34.24L62.55,35.22L62.46,36.2L62.37,37.17L62.27,38.15L62.17,39.13L62.07,40.11L61.96,41.09L61.85,42.07L61.73,43.04L61.61,44.02L61.49,45L61.36,45.98L61.22,46.96L61.08,47.94L60.94,48.91L60.79,49.89L60.63,50.87L60.47,51.85L60.3,52.83L60.12,53.81L59.94,54.78L59.75,55.76L59.55,56.74L59.34,57.72L59.12,58.7L58.9,59.68L58.66,60.65L58.41,61.63L58.15,62.61L57.88,63.59L57.59,64.57L57.29,65.54L56.97,66.52L56.64,67.5L56.29,68.48L55.93,69.46L55.54,70.44L55.13,71.41L54.7,72.39L54.24,73.37L53.76,74.35L53.25,75.33L52.7,76.31L52.13,77.28L51.51,78.26L50.86,79.24L50.17,80.22L49.42,81.2L48.63,82.18L47.78,83.15L46.87,84.13L45.89,85.11L44.84,86.09L43.7,87.07L42.48,88.05L41.15,89.02L39.71,90L38.15,90.98L36.45,91.96L34.59,92.94L32.55,93.92" stroke="#7196FF" fill="none" stroke-width="13.5" stroke-linecap="butt" stroke-linejoin="miter"/></svg>
